M48
METRIC,LZ,000.000
;FILE_FORMAT=3:3
;TYPE=PLATED
;Layer: PTH_Through_Via
;EasyEDA v6.5.51, 2025-11-28 17:22:10
;3f89507fd9de47f783310b3fc4076c63,ba7c814570024b70955b40637584d18f,10
;Gerber Generator version 0.2
;Holesize 1 = 0.305 mm
T01C0.305
;Holesize 2 = 0.310 mm
T02C0.310
%
G05
G90
T01
X128000Y-039000
X118500Y-018000
X014500Y-040500
X132000Y-026500
X137500Y016000
X141000Y015000
X143500Y017000
X084300Y-004200
X036600Y-011700
X037500Y-006000
X120600Y-000900
X130200Y000000
X098700Y-002400
X135525Y005325
X140287Y005999
X083500Y099000
X144000Y091500
X012000Y085000
X041000Y052500
X118800Y033600
X121000Y039500
X045000Y038500
X141500Y014000
X130500Y-026286
X-000500Y073000
X053400Y014700
X060600Y014100
X068400Y014700
X086400Y015600
X099300Y015000
X116400Y015300
X120300Y013800
X121800Y014700
X132300Y009901
X135300Y006600
X126100Y-020600
X018931Y033569
X006148Y000000
X035100Y-001500
X110900Y-001200
X116500Y006400
X067800Y-011300
X081400Y093000
X004600Y-021600
X127300Y003500
X053000Y-011300
X099600Y007600
X139900Y-030600
X017400Y-003800
T02
X120165Y-028720
X123226Y-025578
X137323Y064160
X126185Y059774
X133741Y009639
X016467Y063439
X090391Y073599
X011333Y076276
X094229Y076317
X137292Y097884
X132207Y001570
X123500Y030500
X069037Y-013726
X089149Y071059
X026086Y063983
X001648Y-012624
X048029Y-027871
X016449Y-016081
X016078Y-015357
X130383Y056794
X139603Y-009980
X081029Y078384
M30
