M48
METRIC,LZ,000.000
;FILE_FORMAT=3:3
;TYPE=PLATED
;Layer: PTH_Through
;EasyEDA v6.5.51, 2025-11-28 17:22:10
;3f89507fd9de47f783310b3fc4076c63,ba7c814570024b70955b40637584d18f,10
;Gerber Generator version 0.2
;Holesize 1 = 0.305 mm
T01C0.305
;Holesize 2 = 0.310 mm
T02C0.310
;Holesize 3 = 0.701 mm
T03C0.701
;Holesize 4 = 0.915 mm
T04C0.915
;Holesize 5 = 1.101 mm
T05C1.101
;Holesize 6 = 1.301 mm
T06C1.301
;Holesize 7 = 2.000 mm
T07C2.000
%
G05
G90
T01
X128000Y-039000
X118500Y-018000
X014500Y-040500
X132000Y-026500
X137500Y016000
X141000Y015000
X143500Y017000
X084300Y-004200
X036600Y-011700
X037500Y-006000
X120600Y-000900
X130200Y000000
X098700Y-002400
X135525Y005325
X140287Y005999
X083500Y099000
X144000Y091500
X012000Y085000
X041000Y052500
X118800Y033600
X121000Y039500
X045000Y038500
X141500Y014000
X130500Y-026286
X-000500Y073000
X053400Y014700
X060600Y014100
X068400Y014700
X086400Y015600
X099300Y015000
X116400Y015300
X120300Y013800
X121800Y014700
X132300Y009901
X135300Y006600
X126100Y-020600
X018931Y033569
X006148Y000000
X035100Y-001500
X110900Y-001200
X116500Y006400
X067800Y-011300
X081400Y093000
X004600Y-021600
X127300Y003500
X053000Y-011300
X099600Y007600
X139900Y-030600
X017400Y-003800
T02
X120165Y-028720
X123226Y-025578
X137323Y064160
X126185Y059774
X133741Y009639
X016467Y063439
X090391Y073599
X011333Y076276
X094229Y076317
X137292Y097884
X132207Y001570
X123500Y030500
X069037Y-013726
X089149Y071059
X026086Y063983
X001648Y-012624
X048029Y-027871
X016449Y-016081
X016078Y-015357
X130383Y056794
X139603Y-009980
X081029Y078384
T03
X130500Y-030900
X135000Y080000
X112674Y-003300
X124200Y-001500
X140400Y082800
X124500Y-023670
X121400Y-023200
X132900Y-024600
X130800Y-024330
X126000Y-022500
X123900Y-019800
X126284Y-024965
X022500Y-027000
X037500Y-027000
X074900Y-038600
X088500Y-021000
X090300Y-040500
X032000Y-038200
X127500Y-015500
X103500Y-020400
X128400Y-018600
X105000Y-022200
X105000Y-025500
X099000Y-034200
X139412Y-021988
X120600Y-016500
X135000Y-033300
X126600Y-031800
X136800Y-013200
X136800Y-017100
X131100Y-033299
T04
X003000Y099000
X003000Y096460
X003000Y093920
X003000Y091380
X003000Y088840
X003000Y086300
X003000Y083760
X003000Y081220
X003000Y078680
X003000Y076140
X003000Y073600
X003000Y071060
X003000Y068520
X003000Y065980
X003000Y063440
X003000Y060900
X003000Y058360
X003000Y055820
X003000Y053280
X003000Y050740
X003000Y048200
X003000Y045660
X003000Y043120
X003000Y040580
X018240Y040580
X018240Y043120
X018240Y045660
X018240Y048200
X018240Y050740
X018240Y053280
X018240Y055820
X018240Y058360
X018240Y060900
X018240Y063440
X018240Y065980
X018240Y068520
X018240Y071060
X018240Y073600
X018240Y076140
X018240Y078680
X018240Y081220
X018240Y083760
X018240Y086300
X018240Y088840
X018240Y091380
X018240Y093920
X018240Y096460
X018240Y099000
T05
X107430Y030000
X104890Y030000
X102350Y030000
X099810Y030000
X097270Y030000
X094730Y030000
X092190Y030000
X089650Y030000
X087110Y030000
X084570Y030000
X106930Y093000
X104390Y093000
X101850Y093000
X099310Y093000
X096770Y093000
X094230Y093000
X091690Y093000
X089150Y093000
X086610Y093000
X084070Y093000
X123340Y099240
X123340Y096700
X123340Y094160
X123340Y091620
X123340Y089080
X123340Y086540
X123340Y084000
X123340Y081460
X123340Y078920
X123340Y076380
X123340Y073840
X123340Y071300
X123340Y068760
X123340Y066220
X138580Y096700
X138580Y094160
X138580Y091620
X138580Y089080
X138580Y086540
X138580Y084000
X138580Y081460
X138580Y078920
X138580Y076380
X138580Y073840
X138580Y071300
X138580Y068760
X138580Y066220
X138580Y099240
X144930Y087810
X144930Y085270
X142390Y082730
X142390Y080190
X142390Y077650
X142390Y087810
X142390Y085270
X012500Y011500
X015000Y011500
X017500Y011500
X027500Y011500
X030000Y011500
X032500Y011500
X042500Y011500
X045000Y011500
X047500Y011500
X057500Y011500
X060000Y011500
X062500Y011500
X072500Y011500
X075000Y011500
X077500Y011500
X087500Y011500
X090000Y011500
X092500Y011500
X102500Y011500
X105000Y011500
X107500Y011500
X117500Y011500
X120000Y011500
X122500Y011500
T06
X043372Y101053
X038372Y096053
X048372Y096053
X040872Y096053
X045872Y096053
X073372Y101053
X068372Y096053
X078372Y096053
X070872Y096053
X075872Y096053
X058372Y101053
X053372Y096053
X063372Y096053
X055872Y096053
X060872Y096053
T07
X020000Y018350G85X020000Y018650
X010000Y018350G85X010000Y018650
X035000Y018350G85X035000Y018650
X025000Y018350G85X025000Y018650
X050000Y018350G85X050000Y018650
X040000Y018350G85X040000Y018650
X065000Y018350G85X065000Y018650
X055000Y018350G85X055000Y018650
X080000Y018350G85X080000Y018650
X070000Y018350G85X070000Y018650
X095000Y018350G85X095000Y018650
X085000Y018350G85X085000Y018650
X110000Y018350G85X110000Y018650
X100000Y018350G85X100000Y018650
X125000Y018350G85X125000Y018650
X115000Y018350G85X115000Y018650
M30
