M48
METRIC,LZ,000.000
;FILE_FORMAT=3:3
;TYPE=NON_PLATED
;Layer: NPTH_Through
;EasyEDA v6.5.51, 2025-11-28 17:22:10
;3f89507fd9de47f783310b3fc4076c63,ba7c814570024b70955b40637584d18f,10
;Gerber Generator version 0.2
;Holesize 1 = 0.901 mm
T01C0.901
;Holesize 2 = 1.301 mm
T02C1.301
;Holesize 3 = 3.032 mm
T03C3.032
;Holesize 4 = 3.200 mm
T04C3.200
%
G05
G90
T01
X145150Y-024600
X145150Y-021600
T02
X043372Y096053
X048372Y101053
X038372Y101053
X038372Y103653
X048372Y103653
X073372Y096053
X078372Y101053
X068372Y101053
X068372Y103653
X078372Y103653
X058372Y096053
X063372Y101053
X053372Y101053
X053372Y103653
X063372Y103653
T03
X001500Y105000
X145500Y105000
X001500Y-039000
X145500Y-039000
T04
X112500Y-021000
X097500Y-021000
X082500Y-021000
X037500Y-021000
X022500Y-021000
X120000Y-034500
X105000Y-034500
X090000Y-034500
X075000Y-034500
X045000Y-034500
X030000Y-034500
X015000Y-034500
M30
