G04 Layer: TopLayer*
G04 EasyEDA v6.5.51, 2025-11-28 17:22:10*
G04 3f89507fd9de47f783310b3fc4076c63,ba7c814570024b70955b40637584d18f,10*
G04 Gerber Generator version 0.2*
G04 Scale: 100 percent, Rotated: No, Reflected: No *
G04 Dimensions in millimeters *
G04 leading zeros omitted , absolute positions ,4 integer and 5 decimal *
%FSLAX45Y45*%
%MOMM*%

%AMMACRO1*21,1,$1,$2,0,0,$3*%
%ADD10C,0.1300*%
%ADD11C,0.1270*%
%ADD12C,5.0000*%
%ADD13C,4.0000*%
%ADD14R,0.8000X0.8000*%
%ADD15R,1.8000X1.0000*%
%ADD16R,1.5500X1.0000*%
%ADD17R,0.0109X1.0000*%
%ADD18R,1.0000X1.1000*%
%ADD19R,1.1000X2.5000*%
%ADD20R,3.2000X3.2000*%
%ADD21R,0.7000X1.2000*%
%ADD22R,1.5240X0.6000*%
%ADD23R,1.0000X1.5500*%
%ADD24R,0.8000X0.9000*%
%ADD25MACRO1,1.5011X0.9982X0.0000*%
%ADD26MACRO1,1.4986X0.9982X0.0000*%
%ADD27R,1.8034X0.4064*%
%ADD28R,0.4064X1.8034*%
%ADD29C,1.7000*%
%ADD30R,1.5748X1.7000*%
%ADD31C,2.0000*%
%ADD32R,1.5240X1.7000*%
%ADD33C,1.5240*%
%ADD34O,2.999994X3.299993*%
%ADD35C,1.0000*%
%ADD36C,0.6096*%
%ADD37C,0.6100*%

%LPD*%
G36*
X2500020Y-2950006D02*
G01*
X2500020Y-3949954D01*
X3500018Y-3949954D01*
X3500018Y-2950006D01*
G37*
G36*
X3999992Y-2950006D02*
G01*
X3999992Y-3949954D01*
X4999990Y-3949954D01*
X4999990Y-2950006D01*
G37*
G36*
X7000036Y-2950006D02*
G01*
X7000036Y-3949954D01*
X8000034Y-3949954D01*
X8000034Y-2950006D01*
G37*
G36*
X8500008Y-2950006D02*
G01*
X8500008Y-3949954D01*
X9500006Y-3949954D01*
X9500006Y-2950006D01*
G37*
G36*
X10000030Y-2950006D02*
G01*
X10000030Y-3949954D01*
X11000028Y-3949954D01*
X11000028Y-2950006D01*
G37*
G36*
X11500002Y-2950006D02*
G01*
X11500002Y-3949954D01*
X12500000Y-3949954D01*
X12500000Y-2950006D01*
G37*
G36*
X1750009Y-1599996D02*
G01*
X1750009Y-2599994D01*
X2750007Y-2599994D01*
X2750007Y-1599996D01*
G37*
G36*
X3250031Y-1599996D02*
G01*
X3250031Y-2599994D01*
X4250029Y-2599994D01*
X4250029Y-1599996D01*
G37*
G36*
X7749997Y-1599996D02*
G01*
X7749997Y-2599994D01*
X8749995Y-2599994D01*
X8749995Y-1599996D01*
G37*
G36*
X9250019Y-1599996D02*
G01*
X9250019Y-2599994D01*
X10250017Y-2599994D01*
X10250017Y-1599996D01*
G37*
G36*
X10749991Y-1599996D02*
G01*
X10749991Y-2599994D01*
X11749989Y-2599994D01*
X11749989Y-1599996D01*
G37*
G36*
X999998Y-2950006D02*
G01*
X999998Y-3950004D01*
X1999996Y-3950004D01*
X1999996Y-2950006D01*
G37*
D10*
X8199881Y-800100D02*
G01*
X8120125Y-800100D01*
X8120125Y-1080007D01*
X8180070Y-1139952D01*
X8519922Y-1139952D01*
X8519922Y-1094994D01*
D11*
X11090005Y-119999D02*
G01*
X11210005Y0D01*
X11300002Y0D01*
X11650004Y640003D02*
G01*
X11650004Y640003D01*
X11420017Y640003D01*
D10*
X6842759Y-800100D02*
G01*
X6679945Y-800100D01*
X6610095Y-869950D01*
X6610095Y-1089913D01*
X6722109Y-1202181D01*
X11626850Y-1202181D01*
X12272263Y-556768D01*
X12989559Y-556768D01*
X13703554Y156971D01*
D11*
X3799992Y0D02*
G01*
X3660002Y0D01*
X3510003Y-149999D01*
D10*
X10664697Y450087D02*
G01*
X10664697Y81026D01*
X10670540Y75184D01*
X11025124Y75184D01*
X11180063Y230123D01*
X11567159Y230123D01*
X11762486Y150113D01*
D11*
X799998Y0D02*
G01*
X590001Y0D01*
X12500457Y4599939D02*
G01*
X12500457Y4150001D01*
X13417651Y5412790D02*
G01*
X11410005Y5412790D01*
D10*
X13079984Y-2433065D02*
G01*
X12869925Y-2433065D01*
X13290041Y-2459989D02*
G01*
X13133577Y-2303526D01*
X12869925Y-2303526D01*
X12869925Y-2237486D02*
G01*
X12612624Y-2237486D01*
X12599924Y-2249931D01*
X12839954Y-1860042D02*
G01*
X12964413Y-1860042D01*
X13275818Y-2171445D01*
X13530072Y-2171445D01*
X13642847Y-2303526D02*
G01*
X13708888Y-2369312D01*
X13708888Y-3121152D01*
X13500100Y-3329939D01*
X13530072Y-2303526D02*
G01*
X13642847Y-2303526D01*
X13109956Y-3329939D02*
G01*
X12809981Y-3329939D01*
X12660122Y-3180079D01*
X12322556Y-2557779D02*
G01*
X12175743Y-2704592D01*
X3978402Y-2704592D01*
X3902709Y-2780284D01*
X2330450Y-2780284D01*
X2249931Y-2700020D01*
X12869925Y-2496565D02*
G01*
X12628372Y-2496565D01*
X3750056Y-2700020D02*
G01*
X3774693Y-2675381D01*
X12129770Y-2675381D01*
X12438125Y-2367026D01*
X12450063Y-2367026D01*
X12869925Y-2367026D02*
G01*
X12450063Y-2367026D01*
X8850127Y-2100069D02*
G01*
X8850127Y-2234945D01*
X9239250Y-2624076D01*
X11835940Y-2624076D01*
X12140006Y-2320010D01*
X12869923Y-2171445D02*
G01*
X12288570Y-2171445D01*
X12140006Y-2320010D01*
X13530077Y-2107945D02*
G01*
X13410951Y-2107945D01*
X12853014Y-1550009D01*
X12750012Y-1550009D01*
X12059920Y-1649984D02*
G01*
X12339320Y-1649984D01*
X12629388Y-1940305D01*
X13003022Y-1940305D01*
X13300202Y-2237486D01*
X13530072Y-2237486D01*
X13530072Y-2237486D02*
G01*
X13902690Y-2237486D01*
X13941297Y-2198878D01*
X12869923Y-2562603D02*
G01*
X13112595Y-2562603D01*
X13199999Y-2650007D01*
X13500100Y7999984D02*
G01*
X13216636Y8283447D01*
X11455654Y8283447D01*
X10438891Y9299955D01*
X1823973Y7867904D02*
G01*
X1847595Y7891526D01*
X9030715Y7891526D01*
X10438891Y9299955D01*
X13857986Y7892034D02*
G01*
X13608050Y7892034D01*
X13500100Y7999984D01*
X1532636Y7679944D02*
G01*
X1720850Y7867904D01*
X1823973Y7867904D01*
X1459992Y7679944D02*
G01*
X1532636Y7679944D01*
X12420091Y-150113D02*
G01*
X13264388Y-150113D01*
X13571474Y156971D01*
X9999979Y0D02*
G01*
X9999979Y-329945D01*
X9999979Y-329945D02*
G01*
X11267440Y-329945D01*
X9967213Y-675131D02*
G01*
X9967213Y-362712D01*
X9999979Y-329945D01*
X9800081Y-800100D02*
G01*
X9900158Y-800100D01*
X9900158Y-800100D02*
G01*
X9900158Y-741934D01*
X9967213Y-675131D01*
X13571474Y270002D02*
G01*
X13571474Y156971D01*
X10079990Y-675131D02*
G01*
X9967213Y-675131D01*
X14040104Y8279892D02*
G01*
X14040104Y9150604D01*
X13918691Y9272015D01*
X12259309Y9272015D01*
X12006579Y9525000D01*
X8585454Y9525000D01*
X8470391Y9409684D01*
X5532881Y9409684D01*
X5337302Y9605263D01*
X14238986Y8273034D02*
G01*
X14046961Y8273034D01*
X14040104Y8279892D01*
X11595354Y-705104D02*
G01*
X11632691Y-705104D01*
X11519915Y-705104D02*
G01*
X11595354Y-705104D01*
X299973Y6343904D02*
G01*
X1646681Y6343904D01*
X1299971Y8230870D02*
G01*
X1299971Y8867902D01*
X1823973Y9391904D01*
X1299971Y7979918D02*
G01*
X1299971Y8230870D01*
X13374116Y963929D02*
G01*
X13408152Y963929D01*
X13441934Y929894D01*
X12499847Y6200139D02*
G01*
X12499847Y6052312D01*
X12499847Y6052312D02*
G01*
X12543536Y6052312D01*
X12618465Y5977381D01*
X10079990Y-1065021D02*
G01*
X10192765Y-1065021D01*
X11632691Y-705104D02*
G01*
X11675872Y-748029D01*
X11675872Y-1111757D01*
X11619738Y-1167892D01*
X10295381Y-1167892D01*
X10192765Y-1065021D01*
X2634995Y9649968D02*
G01*
X2634995Y9577831D01*
X1823973Y9391904D02*
G01*
X2449322Y9391904D01*
X2634995Y9577831D01*
X1299971Y7679944D02*
G01*
X1299971Y7979918D01*
X14290040Y-2234945D02*
G01*
X14190979Y-2234945D01*
X14190979Y-2234945D02*
G01*
X13997940Y-2041905D01*
X13642847Y-2041905D01*
X13732256Y6416039D02*
G01*
X13568172Y6416039D01*
X13499845Y6347713D01*
X13499845Y6199886D02*
G01*
X13499845Y6347713D01*
X1020063Y-705104D02*
G01*
X1132839Y-705104D01*
X2576322Y-705104D02*
G01*
X2632709Y-705104D01*
X2519934Y-705104D02*
G01*
X2576322Y-705104D01*
X4020058Y-705104D02*
G01*
X4020058Y-753110D01*
X3897375Y-875792D01*
X2803397Y-875792D01*
X2632709Y-705104D01*
X5519927Y-705104D02*
G01*
X5632704Y-705104D01*
X2329941Y599947D02*
G01*
X2298700Y599947D01*
X13530072Y-2041905D02*
G01*
X13642847Y-2041905D01*
X13642847Y-2041905D02*
G01*
X13642847Y-1747012D01*
X13679931Y-1709928D01*
X13299947Y-1199895D02*
G01*
X13299947Y-1300226D01*
X13299947Y-1300226D02*
G01*
X13660120Y-1300226D01*
X13679931Y-1320037D01*
X14238986Y7765034D02*
G01*
X13070840Y7765034D01*
X12581636Y8254237D01*
X12077191Y8254237D01*
X11661393Y7838439D01*
X8102854Y7838439D01*
X13999972Y-899921D02*
G01*
X13999972Y-958342D01*
X13960347Y-997965D01*
X1823973Y5835904D02*
G01*
X12881863Y5835904D01*
X13038327Y5679439D01*
X13417041Y-2758186D02*
G01*
X13417041Y-2395728D01*
X12991084Y-1969515D01*
X12537693Y-1969515D01*
X12378943Y-1810765D01*
X12062968Y-1810765D01*
X11788140Y-1535684D01*
X1607820Y-1535684D01*
X13530072Y-2758186D02*
G01*
X13417041Y-2758186D01*
X13642847Y-2692145D02*
G01*
X13642847Y-2794000D01*
X13631925Y-2804921D01*
X13401293Y-2804921D01*
X13363702Y-2767076D01*
X13363702Y-2383536D01*
X12978891Y-1998726D01*
X12513818Y-1998726D01*
X12378181Y-1863344D01*
X12053570Y-1863344D01*
X11767311Y-1577339D01*
X1675892Y-1577339D01*
X1644904Y-1608073D01*
X13530072Y-2692145D02*
G01*
X13642847Y-2692145D01*
X14190979Y-2085086D02*
G01*
X13531850Y-1425702D01*
X6881622Y-1425702D01*
X6804406Y-1348739D01*
X6804406Y-1348486D01*
X250952Y-1348486D01*
X164845Y-1262379D01*
X14388845Y-2085086D02*
G01*
X14388845Y-2274570D01*
X14347190Y-2316479D01*
X14316456Y-2316479D01*
X13827252Y-2805684D01*
X13827252Y-3292347D01*
X13835125Y-3300221D01*
X14100047Y-3300221D01*
X14100047Y-3200145D02*
G01*
X14100047Y-3300221D01*
X14388845Y-2085086D02*
G01*
X14402816Y-2085086D01*
X14485111Y-2002789D01*
X14485111Y-1599945D01*
X14100047Y-2899918D02*
G01*
X14100047Y-3200145D01*
X14290040Y-2085086D02*
G01*
X14190979Y-2085086D01*
X14290040Y-2085086D02*
G01*
X14388845Y-2085086D01*
X13700252Y4599939D02*
G01*
X13700252Y5483605D01*
X13359891Y5823965D01*
X13057377Y5823965D01*
X12778740Y6102604D01*
X12778740Y6344157D01*
X12724638Y6398260D01*
X2608579Y6398260D01*
X1823973Y7105904D02*
G01*
X8914891Y7105904D01*
X13999972Y-700023D02*
G01*
X13263625Y-700023D01*
X12591034Y-1372615D01*
X6903720Y-1372615D01*
X4837175Y9605263D02*
G01*
X4705095Y9737344D01*
X3969258Y9737344D01*
X3837177Y9605263D01*
X7337297Y10105389D02*
G01*
X7464297Y9978136D01*
X7464297Y9544558D01*
X7530338Y9478518D01*
X8416036Y9478518D01*
X8533891Y9596120D01*
X12032741Y9596120D01*
X12074906Y9554210D01*
X13893038Y9554210D01*
X14492986Y8954262D01*
X14492986Y8781034D01*
X299973Y6851904D02*
G01*
X401320Y6953250D01*
X12256770Y6953250D01*
X12333986Y6876034D01*
X1762505Y450087D02*
G01*
X2342641Y450087D01*
X2642615Y150113D01*
X2762504Y150113D01*
X4262627Y150113D02*
G01*
X4164838Y150113D01*
X3360420Y450087D02*
G01*
X3864863Y450087D01*
X4164838Y150113D01*
X3262629Y450087D02*
G01*
X3360420Y450087D01*
X4860292Y450087D02*
G01*
X5160342Y150037D01*
X5762497Y150037D01*
X4762500Y450087D02*
G01*
X4860290Y450087D01*
X10762488Y450087D02*
G01*
X10664697Y450087D01*
X10262615Y150113D02*
G01*
X10164825Y150113D01*
X10164825Y150113D02*
G01*
X9864852Y450087D01*
X9262618Y450087D01*
X7262622Y150113D02*
G01*
X7164831Y150113D01*
X6262497Y450011D02*
G01*
X6864934Y450011D01*
X7164834Y150111D01*
X8762491Y150113D02*
G01*
X8664956Y150113D01*
X7860284Y450087D02*
G01*
X8364981Y450087D01*
X8664956Y150113D01*
X7762493Y450087D02*
G01*
X7860284Y450087D01*
X13441934Y156971D02*
G01*
X13220700Y156971D01*
X13441934Y270002D02*
G01*
X13441934Y156971D01*
X12350013Y3050006D02*
G01*
X9818115Y5581904D01*
X1823976Y5581904D01*
X1823973Y5327904D02*
G01*
X4462525Y2689352D01*
X9024620Y2689352D01*
X9083293Y2630678D01*
X10480802Y2630678D01*
X11214354Y1897126D01*
X11214354Y1855723D01*
X11711431Y1358645D01*
X11791188Y1358645D01*
X11999975Y1149857D01*
X1823973Y5073904D02*
G01*
X4309109Y2588768D01*
X9023604Y2588768D01*
X9693402Y1919223D01*
X9693402Y1879600D01*
X10423143Y1149857D01*
X10500106Y1149857D01*
X1823973Y4819904D02*
G01*
X4157472Y2486405D01*
X7626095Y2486405D01*
X8193531Y1919223D01*
X8193531Y1879600D01*
X8923020Y1149857D01*
X8999981Y1149857D01*
X1823973Y4565904D02*
G01*
X4036822Y2353310D01*
X6259322Y2353310D01*
X6693408Y1919223D01*
X6693408Y1879600D01*
X7423150Y1149857D01*
X7500111Y1149857D01*
X1823973Y4311904D02*
G01*
X4098290Y2037587D01*
X5074920Y2037587D01*
X5193284Y1919223D01*
X5193284Y1879600D01*
X5923025Y1149857D01*
X5999988Y1149857D01*
X299973Y4057904D02*
G01*
X2306574Y2051304D01*
X2306574Y1779015D01*
X2935731Y1149857D01*
X2999993Y1149857D01*
X299973Y5581904D02*
G01*
X426973Y5454904D01*
X1865629Y5454904D01*
X4601972Y2718562D01*
X9104629Y2718562D01*
X9159747Y2663697D01*
X10954258Y2663697D01*
X12124943Y1493012D01*
X12124943Y1113028D01*
X12420854Y817118D01*
X14092174Y817118D01*
X14092174Y929894D02*
G01*
X14092174Y817118D01*
X14092174Y270002D02*
G01*
X14092174Y459739D01*
X14532356Y899921D01*
X14660625Y899921D01*
X14700250Y939545D01*
X14700250Y1059434D01*
X10050779Y5708904D01*
X426973Y5708904D01*
X299973Y5835904D01*
X14028674Y270002D02*
G01*
X14028674Y382778D01*
X13642847Y-2628645D02*
G01*
X13672311Y-2657855D01*
X13672311Y-2807715D01*
X13299947Y-3179826D01*
X13299947Y-3599942D01*
X13530072Y-2628645D02*
G01*
X13642847Y-2628645D01*
X13703554Y270002D02*
G01*
X13703554Y156971D01*
X6842759Y-800100D02*
G01*
X6893052Y-800100D01*
X6800088Y-800100D02*
G01*
X6842759Y-800100D01*
X6999986Y-100329D02*
G01*
X7145527Y-245871D01*
X7145527Y-751586D01*
X7083043Y-814323D01*
X6907275Y-814323D01*
X6907275Y-814323D02*
G01*
X6907275Y-1094994D01*
X6893052Y-800100D02*
G01*
X6907275Y-814323D01*
X6999986Y0D02*
G01*
X6999986Y-100329D01*
X7020052Y-1094994D02*
G01*
X6907275Y-1094994D01*
X8270011Y-789990D02*
G01*
X8621725Y-789990D01*
X8632700Y-779015D01*
X8632700Y-232915D01*
X8500107Y-100329D01*
X8500109Y0D02*
G01*
X8500109Y-100329D01*
X8249914Y-800100D02*
G01*
X8260024Y-789990D01*
X8270011Y-789990D01*
X8270011Y-789990D02*
G01*
X8209993Y-789990D01*
X8199884Y-800100D01*
X11500104Y0D02*
G01*
X11500104Y-100329D01*
X11400281Y-800100D02*
G01*
X11632691Y-1032510D01*
X11632691Y-1094994D01*
X11299952Y-800100D02*
G01*
X11400281Y-800100D01*
X11519915Y-1094994D02*
G01*
X11632691Y-1094994D01*
X11500104Y-100329D02*
G01*
X11400281Y-199897D01*
X11400281Y-800100D01*
X13767054Y156971D02*
G01*
X13023850Y-586231D01*
X12291822Y-586231D01*
X11646661Y-1231392D01*
X5769102Y-1231392D01*
X5632704Y-1094994D01*
X13767054Y270002D02*
G01*
X13767054Y156971D01*
X5519927Y-1094994D02*
G01*
X5632704Y-1094994D01*
X5463540Y-1094994D02*
G01*
X5519927Y-1094994D01*
X5463540Y-1094994D02*
G01*
X5407406Y-1094994D01*
X5500115Y0D02*
G01*
X5500115Y-100329D01*
X5350256Y-800100D02*
G01*
X5407406Y-857250D01*
X5407406Y-1094994D01*
X5350256Y-800100D02*
G01*
X5400293Y-800100D01*
X5299963Y-800100D02*
G01*
X5350256Y-800100D01*
X5500115Y-100329D02*
G01*
X5400293Y-199897D01*
X5400293Y-800100D01*
X13833093Y156971D02*
G01*
X12703809Y-972312D01*
X11947143Y-972312D01*
X11658854Y-1260855D01*
X4298441Y-1260855D01*
X4132834Y-1094994D01*
X13833093Y270002D02*
G01*
X13833093Y156971D01*
X4020058Y-1094994D02*
G01*
X4132834Y-1094994D01*
X3900170Y-800100D02*
G01*
X3900170Y-199897D01*
X3999991Y-100329D01*
X3999991Y0D02*
G01*
X3999991Y-100329D01*
X3800093Y-800100D02*
G01*
X3900170Y-800100D01*
X13896593Y156971D02*
G01*
X12723368Y-1016254D01*
X11944858Y-1016254D01*
X11670791Y-1290065D01*
X2827781Y-1290065D01*
X2632709Y-1094994D01*
X13896593Y270002D02*
G01*
X13896593Y156971D01*
X2519934Y-1094994D02*
G01*
X2632709Y-1094994D01*
X2463545Y-1094994D02*
G01*
X2519934Y-1094994D01*
X2463545Y-1094994D02*
G01*
X2407158Y-1094994D01*
X2250186Y-800100D02*
G01*
X2407158Y-957071D01*
X2407158Y-1094994D01*
X2250186Y-800100D02*
G01*
X2300224Y-800100D01*
X2199893Y-800100D02*
G01*
X2250186Y-800100D01*
X2464054Y-24129D02*
G01*
X2464054Y-124205D01*
X2464054Y-124205D02*
G01*
X2300224Y-288036D01*
X2300224Y-800100D01*
X13962634Y156971D02*
G01*
X12486131Y-1319276D01*
X1357121Y-1319276D01*
X1132839Y-1094994D01*
X1020063Y-1094994D02*
G01*
X1132839Y-1094994D01*
X750062Y-800100D02*
G01*
X728471Y-800100D01*
X599694Y-928623D01*
X599694Y-1069086D01*
X625855Y-1094994D01*
X1020063Y-1094994D01*
X13962634Y270002D02*
G01*
X13962634Y156971D01*
X750062Y-800100D02*
G01*
X800354Y-800100D01*
X700023Y-800100D02*
G01*
X750062Y-800100D01*
X999997Y0D02*
G01*
X999997Y-100329D01*
X999997Y-100329D02*
G01*
X800354Y-299973D01*
X800354Y-800100D01*
X14314931Y-1599945D02*
G01*
X14314931Y-1527810D01*
X14314931Y-1527810D02*
G01*
X14320011Y-1522729D01*
X14320011Y-1299971D01*
X2464815Y9577831D02*
G01*
X2400045Y9512808D01*
X1225295Y9512808D01*
X1192784Y9545320D01*
X1192784Y9599929D01*
X2464815Y9649968D02*
G01*
X2464815Y9577831D01*
X1120139Y9599929D02*
G01*
X1192784Y9599929D01*
X1823973Y6597904D02*
G01*
X1917700Y6504178D01*
X13740129Y6504178D01*
X13857986Y6622034D01*
X1823973Y6851904D02*
G01*
X1914144Y6761987D01*
X13743940Y6761987D01*
X13857986Y6876034D01*
X1823973Y8883904D02*
G01*
X8402065Y8883904D01*
X8787891Y9269984D01*
X8787891Y9336786D01*
X8888222Y9437115D01*
X10748263Y9437115D01*
X11385550Y8799576D01*
X13749527Y8799576D01*
X13857986Y8908034D01*
X1823973Y9137904D02*
G01*
X8451088Y9137904D01*
X8509254Y9196070D01*
X8509254Y9312655D01*
X8662670Y9466326D01*
X10894568Y9466326D01*
X11307318Y9053576D01*
X13749527Y9053576D01*
X13857986Y9162034D01*
X299973Y6597904D02*
G01*
X409955Y6707886D01*
X12248134Y6707886D01*
X12333986Y6622034D01*
X299973Y7105904D02*
G01*
X406400Y6999478D01*
X12203684Y6999478D01*
X12333986Y7130034D01*
X299973Y7359904D02*
G01*
X401320Y7461250D01*
X12256770Y7461250D01*
X12333986Y7384034D01*
X299973Y7867904D02*
G01*
X659892Y7508239D01*
X11950191Y7508239D01*
X12333986Y7892034D01*
X12333986Y8146034D02*
G01*
X11943079Y7755128D01*
X1722628Y7755128D01*
X1540510Y7573010D01*
X849121Y7573010D01*
X299973Y8121904D01*
X1823973Y8629904D02*
G01*
X9261093Y8629904D01*
X9930891Y9299955D01*
X1823973Y8121904D02*
G01*
X8906256Y8121904D01*
X10057891Y9273794D01*
X10057891Y9335515D01*
X10130281Y9407652D01*
X10585195Y9407652D01*
X10692891Y9299955D01*
X1532636Y7979918D02*
G01*
X1674876Y8121904D01*
X1823973Y8121904D01*
X13857986Y8146034D02*
G01*
X13491718Y8512302D01*
X11480545Y8512302D01*
X10692891Y9299955D01*
X1459992Y7979918D02*
G01*
X1532636Y7979918D01*
X13767054Y1042923D02*
G01*
X11978893Y2830829D01*
X10150093Y2830829D01*
X9980929Y2999994D01*
X13767054Y929894D02*
G01*
X13767054Y1042923D01*
X13703554Y1042923D02*
G01*
X11944858Y2801620D01*
X9925304Y2801620D01*
X9726929Y2999994D01*
X13703554Y929894D02*
G01*
X13703554Y1042923D01*
X13637513Y1042923D02*
G01*
X11908027Y2772410D01*
X9700768Y2772410D01*
X9472929Y2999994D01*
X13637513Y929894D02*
G01*
X13637513Y1042923D01*
X13571474Y1042923D02*
G01*
X11871197Y2742945D01*
X9475977Y2742945D01*
X9218929Y2999994D01*
X13571474Y929894D02*
G01*
X13571474Y1042923D01*
X13833093Y1042923D02*
G01*
X12015724Y2860294D01*
X10374884Y2860294D01*
X10234929Y2999994D01*
X13833093Y929894D02*
G01*
X13833093Y1042923D01*
X13896593Y1042923D02*
G01*
X12050013Y2889504D01*
X10599420Y2889504D01*
X10488929Y2999994D01*
X13896593Y929894D02*
G01*
X13896593Y1042923D01*
X13962634Y1042923D02*
G01*
X12005563Y2999994D01*
X10742929Y2999994D01*
X13962634Y929894D02*
G01*
X13962634Y1042923D01*
X5837174Y10105389D02*
G01*
X6013195Y9929368D01*
X7137654Y9929368D01*
X7434834Y9631934D01*
X7434834Y9532365D01*
X7518145Y9449308D01*
X8453881Y9449308D01*
X8558784Y9554210D01*
X12028931Y9554210D01*
X12279375Y9303765D01*
X13928343Y9303765D01*
X14356841Y8875268D01*
X14356841Y8136889D01*
X14238986Y8019034D01*
X7837170Y9605263D02*
G01*
X8020304Y9788397D01*
X13729208Y9788397D01*
X1823973Y8375904D02*
G01*
X1718563Y8481568D01*
X1718563Y8675115D01*
X1800605Y8756904D01*
X9134093Y8756904D01*
X9676891Y9299955D01*
X1823973Y7613904D02*
G01*
X1841754Y7631684D01*
X9422891Y7631684D01*
X8964929Y2999994D02*
G01*
X9251188Y2713736D01*
X11085322Y2713736D01*
X12756388Y1042923D01*
X13507974Y1042923D01*
X13507974Y929894D02*
G01*
X13507974Y1042923D01*
X10184891Y9299955D02*
G01*
X8867393Y7982458D01*
X1619757Y7982458D01*
X1387347Y7750047D01*
X1387347Y7620508D01*
X1369060Y7602220D01*
X1158747Y7602220D01*
X1133347Y7627620D01*
X1823973Y7359904D02*
G01*
X9039097Y7359904D01*
X1823973Y9645904D02*
G01*
X1723897Y9746234D01*
X1723897Y9954768D01*
X1971802Y10202671D01*
X4239768Y10202671D01*
X4337304Y10105136D01*
X14028674Y929894D02*
G01*
X14028674Y1042923D01*
X14599920Y999997D02*
G01*
X14499843Y999997D01*
X14499843Y999997D02*
G01*
X14456918Y1042923D01*
X14028674Y1042923D01*
D11*
X8350001Y9900000D02*
G01*
X8550000Y10100000D01*
X14249999Y10100000D01*
X14250001Y10100000D01*
X14400001Y9950000D01*
X14400001Y9149999D01*
X299999Y9646005D02*
G01*
X1200000Y8746004D01*
X1200000Y8500000D01*
X1262634Y150113D02*
G01*
X949960Y150113D01*
X500126Y599947D01*
X500126Y2949955D01*
X-50037Y3500120D01*
X-50037Y7313929D01*
X-49999Y7300000D01*
X4500115Y3849880D02*
G01*
X10349991Y3849880D01*
X11099876Y3099993D01*
X12050013Y3099993D01*
X13750008Y1399999D01*
X14149999Y1399999D01*
X13750000Y1599999D02*
G01*
X13999999Y1599999D01*
X14099999Y1499999D01*
X299999Y5328005D02*
G01*
X2849999Y2778005D01*
X2849999Y2430000D01*
X2849999Y1859998D01*
X3059998Y1649999D01*
X5159999Y1649999D01*
X5339999Y1469999D01*
X13529995Y659998D02*
G01*
X14009994Y659998D01*
X14158137Y808141D01*
X14158137Y929995D01*
X4020007Y-1095019D02*
G01*
X4020007Y-1139992D01*
X3959999Y-1200000D01*
X3689997Y-1200000D01*
X3659997Y-1170000D01*
X12180061Y1469897D02*
G01*
X12240006Y1469897D01*
X12720065Y990092D01*
X13229996Y990092D01*
X12180061Y1469897D02*
G01*
X12240006Y1469897D01*
X12720065Y990092D01*
X13079984Y990092D01*
X11639997Y1529999D02*
G01*
X11759996Y1529999D01*
X11909996Y1379999D01*
X12029996Y1379999D01*
X8639997Y1559999D02*
G01*
X8759997Y1559999D01*
X8849997Y1469999D01*
X9899997Y1469999D01*
X9929997Y1499999D01*
X6059998Y1409999D02*
G01*
X6119997Y1409999D01*
X6239997Y1529999D01*
X6779999Y1529999D01*
X6839999Y1469999D01*
X12870002Y-2628595D02*
G01*
X13049999Y-2628595D01*
D10*
X12016480Y-2871980D02*
G01*
X12016480Y-2899915D01*
X8508243Y-2899915D01*
X7887208Y-3520950D01*
X7829064Y-3520950D01*
X7490002Y-3860012D01*
X12869925Y-2692145D02*
G01*
X12313411Y-2692145D01*
X12218415Y-2787142D01*
X4802886Y-2787142D01*
D11*
X8500008Y0D02*
G01*
X8849997Y0D01*
X9089997Y-239999D01*
X9869998Y-239999D01*
D10*
X14028674Y599947D02*
G01*
X14028674Y599947D01*
X12387579Y599947D01*
X11883897Y1103629D01*
X11883897Y1186179D01*
X11751056Y1319021D01*
X11099545Y1319021D01*
X9866629Y2551684D01*
X9114536Y2551684D01*
X9012174Y2654045D01*
X4456429Y2654045D01*
X1905254Y5205221D01*
X613663Y5205221D01*
X354076Y5464810D01*
X271779Y5464810D01*
X192531Y5544057D01*
X192531Y5982462D01*
X299973Y6089904D01*
X14028674Y382778D02*
G01*
X14028674Y599947D01*
D11*
X11500002Y0D02*
G01*
X11969996Y0D01*
X12059996Y-89999D01*
X12100001Y3949999D02*
G01*
X13550000Y3949999D01*
X13900251Y4300250D01*
X13900251Y4599990D01*
D10*
X1299971Y8230870D02*
G01*
X243331Y8230870D01*
X50037Y8037576D01*
X50037Y6593839D01*
X299973Y6343904D01*
D11*
X4100004Y5249999D02*
G01*
X9250001Y5249999D01*
X11150005Y3350003D01*
X11870001Y3350003D01*
X11879986Y3359988D01*
X4099999Y5249999D02*
G01*
X9250001Y5249999D01*
X11150000Y3350000D01*
X13552424Y532384D02*
G01*
X13552424Y517652D01*
X13637513Y432562D01*
X13637513Y270002D01*
X13019996Y0D02*
G01*
X13349996Y0D01*
X13507897Y157901D01*
X13507897Y270002D01*
X12250013Y1149985D02*
G01*
X12470010Y1149985D01*
X12689994Y930000D01*
X13340186Y930000D01*
X13374116Y963929D01*
X3750000Y-599998D02*
G01*
X3799992Y-649991D01*
X3799992Y-799998D01*
X8519998Y-705002D02*
G01*
X8519998Y-509998D01*
X8429998Y-419999D01*
X14349999Y1699999D02*
G01*
X14449996Y1799996D01*
X14599996Y1799996D01*
X12870002Y-2041855D02*
G01*
X12628153Y-2041855D01*
X12610007Y-2060000D01*
X1893143Y3356858D02*
G01*
X1509146Y3356858D01*
X299999Y4566005D01*
D10*
X12869925Y-2107945D02*
G01*
X12729972Y-2109978D01*
X12660007Y-2130000D01*
X12540234Y-2130044D01*
X12390120Y-1979929D01*
D11*
X8406993Y9300006D02*
G01*
X8140004Y9300006D01*
D10*
X12869923Y-2433065D02*
G01*
X12757150Y-2433065D01*
X12732506Y-2408430D01*
X12555722Y-2408430D01*
X12230100Y-2734053D01*
X4168899Y-2734053D01*
X3417315Y-3485642D01*
X3417315Y-3602685D01*
X3199993Y-3820007D01*
D11*
X1449999Y-4049999D02*
G01*
X1449999Y-3899999D01*
X1499999Y-3849999D01*
X12799999Y-3899999D02*
G01*
X12700000Y-3899999D01*
X12550000Y-4049999D01*
X9249999Y-4049999D01*
X9149999Y-4149999D01*
X4550001Y-4149999D01*
X4500001Y-4099999D01*
X4500001Y-3849999D01*
X4260001Y-3790002D01*
X3750005Y-2699994D02*
G01*
X3660002Y-2500002D01*
X2250008Y-2699994D02*
G01*
X2270000Y-2450000D01*
X8849995Y-2099995D02*
G01*
X8650005Y-2080000D01*
X10349991Y-2040001D02*
G01*
X10209999Y-2040001D01*
X10120005Y-2190000D01*
X9900005Y-3420008D02*
G01*
X10070007Y-3420008D01*
X10140005Y-3500003D01*
X11630007Y-2140000D02*
G01*
X11650004Y-1999980D01*
X11849988Y-1799996D01*
X9029954Y-4050029D02*
G01*
X9029954Y-3879954D01*
X8930004Y-3840002D01*
X12659995Y-3180003D02*
G01*
X12469997Y-3180003D01*
X12350005Y-3330000D01*
X1740001Y-380009D02*
G01*
X1457934Y-380009D01*
X1132839Y-705104D01*
D10*
X11762486Y150113D02*
G01*
X11762511Y150037D01*
D12*
G01*
X3000019Y-3450005D03*
G01*
X4500016Y-3450005D03*
G01*
X7500035Y-3450005D03*
G01*
X9000032Y-3450005D03*
G01*
X10500029Y-3450005D03*
G01*
X12000026Y-3450005D03*
G01*
X2250033Y-2099995D03*
G01*
X3750030Y-2099995D03*
G01*
X8250021Y-2099995D03*
G01*
X9750018Y-2099995D03*
G01*
X11250015Y-2099995D03*
G01*
X1499996Y-3450031D03*
D13*
G01*
X14550009Y-3899992D03*
G01*
X150012Y-3899992D03*
G01*
X150012Y10500004D03*
G01*
X14550009Y10500004D03*
G01*
X150012Y10500004D03*
G01*
X150012Y-3899992D03*
D14*
G01*
X2635097Y9649993D03*
G01*
X2464917Y9649993D03*
G01*
X14485086Y-1599996D03*
G01*
X14314906Y-1599996D03*
D15*
G01*
X10079990Y-675004D03*
G01*
X11039983Y-675004D03*
G01*
X10079990Y-1065021D03*
G01*
X11039983Y-1065021D03*
D16*
G01*
X13999997Y-699998D03*
G01*
X13999997Y-899998D03*
D18*
G01*
X1299997Y7979994D03*
G01*
X1459992Y7979994D03*
G01*
X1299997Y7679994D03*
G01*
X1459992Y7679994D03*
D19*
G01*
X13900251Y6200190D03*
G01*
X13699134Y6200139D03*
G01*
X13499820Y6199987D03*
G01*
X13298957Y6200089D03*
G01*
X13099364Y6200165D03*
G01*
X12899770Y6200089D03*
G01*
X12699365Y6200190D03*
G01*
X12499771Y6200089D03*
G01*
X13900251Y4599990D03*
G01*
X13700226Y4599990D03*
G01*
X13500379Y4599787D03*
G01*
X13300430Y4599889D03*
G01*
X13100202Y4599965D03*
G01*
X12900253Y4599889D03*
G01*
X12700254Y4599990D03*
G01*
X12500457Y4599939D03*
D20*
G01*
X13417651Y5412790D03*
D21*
G01*
X14399996Y-1950008D03*
G01*
X14629993Y-1950008D03*
G01*
X14629993Y-2669997D03*
G01*
X14399996Y-2669997D03*
D22*
G01*
X14289989Y-2085009D03*
G01*
X14289989Y-2234996D03*
G01*
X14289989Y-2534996D03*
D23*
G01*
X14099997Y-3199993D03*
G01*
X13899997Y-3199993D03*
D18*
G01*
X1280007Y9600006D03*
G01*
X1120012Y9600006D03*
G01*
X14480006Y-1299997D03*
G01*
X14320011Y-1299997D03*
D15*
G01*
X1020013Y-705002D03*
G01*
X1980006Y-705002D03*
G01*
X1020013Y-1095019D03*
G01*
X1980006Y-1095019D03*
G01*
X2520010Y-705002D03*
G01*
X3480003Y-705002D03*
G01*
X2520010Y-1095019D03*
G01*
X3480003Y-1095019D03*
G01*
X4020007Y-705002D03*
G01*
X4980000Y-705002D03*
G01*
X4020007Y-1095019D03*
G01*
X4980000Y-1095019D03*
G01*
X5520004Y-705002D03*
G01*
X6479997Y-705002D03*
G01*
X5520004Y-1095019D03*
G01*
X6479997Y-1095019D03*
G01*
X11519992Y-705002D03*
G01*
X12479985Y-705002D03*
G01*
X11519992Y-1095019D03*
G01*
X12479985Y-1095019D03*
G01*
X8519998Y-705002D03*
G01*
X9479991Y-705002D03*
G01*
X8519998Y-1095019D03*
G01*
X9479991Y-1095019D03*
G01*
X7020001Y-705002D03*
G01*
X7979994Y-705002D03*
G01*
X7020001Y-1095019D03*
G01*
X7979994Y-1095019D03*
D23*
G01*
X13299998Y-3599992D03*
G01*
X13099999Y-3599992D03*
D16*
G01*
X14599996Y999997D03*
G01*
X14599996Y799998D03*
G01*
X699998Y-799998D03*
G01*
X699998Y-999997D03*
G01*
X2199995Y-799998D03*
G01*
X2199995Y-999997D03*
G01*
X3799992Y-799998D03*
G01*
X3799992Y-999997D03*
G01*
X5299989Y-799998D03*
G01*
X5299989Y-999997D03*
G01*
X11300002Y-799998D03*
G01*
X11300002Y-999997D03*
G01*
X9800005Y-799998D03*
G01*
X9800005Y-999997D03*
G01*
X8270011Y-789990D03*
G01*
X8270011Y-989990D03*
G01*
X6800011Y-799998D03*
G01*
X6800011Y-999997D03*
D24*
G01*
X11280013Y640003D03*
G01*
X11420017Y640003D03*
G01*
X9800005Y629996D03*
G01*
X9940010Y629996D03*
G01*
X8290001Y580009D03*
G01*
X8430006Y580009D03*
G01*
X6830009Y610006D03*
G01*
X6970013Y610006D03*
G01*
X5360009Y650011D03*
G01*
X5500014Y650011D03*
G01*
X2329992Y599998D03*
G01*
X2469997Y599998D03*
G01*
X829995Y599998D03*
G01*
X970000Y599998D03*
D25*
G01*
X7762501Y450004D03*
G01*
X7762501Y150030D03*
D26*
G01*
X7262502Y150030D03*
G01*
X7262502Y450004D03*
D25*
G01*
X9262501Y450004D03*
G01*
X9262501Y150030D03*
D26*
G01*
X8762502Y150030D03*
G01*
X8762502Y450004D03*
D25*
G01*
X12262502Y450004D03*
G01*
X12262502Y150030D03*
D26*
G01*
X11762503Y150030D03*
G01*
X11762503Y450004D03*
D25*
G01*
X10762500Y450004D03*
G01*
X10762500Y150030D03*
D26*
G01*
X10262501Y150030D03*
G01*
X10262501Y450004D03*
D25*
G01*
X4762502Y450004D03*
G01*
X4762502Y150030D03*
D26*
G01*
X4262503Y150030D03*
G01*
X4262503Y450004D03*
D25*
G01*
X3262500Y450004D03*
G01*
X3262500Y150030D03*
D26*
G01*
X2762501Y150030D03*
G01*
X2762501Y450004D03*
D25*
G01*
X1762500Y450004D03*
G01*
X1762500Y150030D03*
D26*
G01*
X1262501Y150030D03*
G01*
X1262501Y450004D03*
D27*
G01*
X12870002Y-2041855D03*
G01*
X12870002Y-2107895D03*
G01*
X12870002Y-2171395D03*
G01*
X12870002Y-2237435D03*
G01*
X12870002Y-2303475D03*
G01*
X12870002Y-2366975D03*
G01*
X12870002Y-2433015D03*
G01*
X12870002Y-2496515D03*
G01*
X12870002Y-2562555D03*
G01*
X12870002Y-2628595D03*
G01*
X12870002Y-2692095D03*
G01*
X12870002Y-2758135D03*
G01*
X13529995Y-2758135D03*
G01*
X13529995Y-2692095D03*
G01*
X13529995Y-2628595D03*
G01*
X13529995Y-2562555D03*
G01*
X13529995Y-2496515D03*
G01*
X13529995Y-2433015D03*
G01*
X13529995Y-2366975D03*
G01*
X13529995Y-2303475D03*
G01*
X13529995Y-2237435D03*
G01*
X13529995Y-2171395D03*
G01*
X13529995Y-2107895D03*
G01*
X13529995Y-2041855D03*
D28*
G01*
X13441857Y270002D03*
G01*
X13507897Y270002D03*
G01*
X13571397Y270002D03*
G01*
X13637437Y270002D03*
G01*
X13703477Y270002D03*
G01*
X13766977Y270002D03*
G01*
X13833017Y270002D03*
G01*
X13896517Y270002D03*
G01*
X13962557Y270002D03*
G01*
X14028597Y270002D03*
G01*
X14092097Y270002D03*
G01*
X14158137Y270002D03*
G01*
X14158137Y929995D03*
G01*
X14092097Y929995D03*
G01*
X14028597Y929995D03*
G01*
X13962557Y929995D03*
G01*
X13896517Y929995D03*
G01*
X13833017Y929995D03*
G01*
X13766977Y929995D03*
G01*
X13703477Y929995D03*
G01*
X13637437Y929995D03*
G01*
X13571397Y929995D03*
G01*
X13507897Y929995D03*
G01*
X13441857Y929995D03*
D23*
G01*
X13099999Y-1199997D03*
G01*
X13299998Y-1199997D03*
D16*
G01*
X14599996Y1599996D03*
G01*
X14599996Y1799996D03*
D23*
G01*
X13899997Y-2899994D03*
G01*
X14099997Y-2899994D03*
G01*
X799998Y0D03*
G01*
X999997Y0D03*
G01*
X2264003Y-24003D03*
G01*
X2464003Y-24003D03*
G01*
X3799992Y0D03*
G01*
X3999991Y0D03*
G01*
X5299989Y0D03*
G01*
X5499988Y0D03*
G01*
X11300002Y0D03*
G01*
X11500002Y0D03*
G01*
X9800005Y0D03*
G01*
X10000005Y0D03*
G01*
X8300008Y0D03*
G01*
X8500008Y0D03*
G01*
X6800011Y0D03*
G01*
X7000011Y0D03*
D24*
G01*
X3830015Y650011D03*
G01*
X3969994Y650011D03*
D25*
G01*
X6262504Y450004D03*
G01*
X6262504Y150030D03*
D26*
G01*
X5762505Y150030D03*
G01*
X5762505Y450004D03*
D29*
G01*
X10743006Y2999994D03*
G01*
X10489006Y2999994D03*
G01*
X10235006Y2999994D03*
G01*
X9981006Y2999994D03*
G01*
X9727006Y2999994D03*
G01*
X9473006Y2999994D03*
G01*
X9219006Y2999994D03*
G01*
X8965006Y2999994D03*
G01*
X8711006Y2999994D03*
D30*
G01*
X8457006Y2999994D03*
D29*
G01*
X10692993Y9300006D03*
G01*
X10438993Y9300006D03*
G01*
X10184993Y9300006D03*
G01*
X9930993Y9300006D03*
G01*
X9676993Y9300006D03*
G01*
X9422993Y9300006D03*
G01*
X9168993Y9300006D03*
G01*
X8914993Y9300006D03*
G01*
X8660993Y9300006D03*
D30*
G01*
X8406993Y9300006D03*
D31*
G01*
X4337177Y10105262D03*
G01*
X3837177Y9605263D03*
G01*
X4837175Y9605263D03*
G01*
X4087164Y9605263D03*
G01*
X4587163Y9605263D03*
G01*
X7337196Y10105288D03*
G01*
X6837197Y9605289D03*
G01*
X7837195Y9605289D03*
G01*
X7087184Y9605289D03*
G01*
X7587183Y9605289D03*
G01*
X5837199Y10105288D03*
G01*
X5337200Y9605289D03*
G01*
X6337198Y9605289D03*
G01*
X5587187Y9605289D03*
G01*
X6087186Y9605289D03*
D32*
G01*
X12334011Y9924008D03*
D29*
G01*
X12333986Y9670008D03*
G01*
X12333986Y9416008D03*
G01*
X12333986Y9162008D03*
G01*
X12333986Y8908008D03*
G01*
X12333986Y8654008D03*
G01*
X12333986Y8400008D03*
G01*
X12333986Y8146008D03*
G01*
X12333986Y7892008D03*
G01*
X12333986Y7638008D03*
G01*
X12333986Y7384008D03*
G01*
X12333986Y7130008D03*
G01*
X12333986Y6876008D03*
G01*
X12333986Y6622008D03*
G01*
X13857986Y9670008D03*
G01*
X13857986Y9416008D03*
G01*
X13857986Y9162008D03*
G01*
X13857986Y8908008D03*
G01*
X13857986Y8654008D03*
G01*
X13857986Y8400008D03*
G01*
X13857986Y8146008D03*
G01*
X13857986Y7892008D03*
G01*
X13857986Y7638008D03*
G01*
X13857986Y7384008D03*
G01*
X13857986Y7130008D03*
G01*
X13857986Y6876008D03*
G01*
X13857986Y6622008D03*
G01*
X13857986Y9924008D03*
G01*
X14492986Y8781008D03*
G01*
X14492986Y8527008D03*
G01*
X14238986Y8273008D03*
G01*
X14238986Y8019008D03*
G01*
X14238986Y7765008D03*
G01*
X14238986Y8781008D03*
G01*
X14238986Y8527008D03*
D33*
G01*
X299999Y9900005D03*
G01*
X299999Y9646005D03*
G01*
X299999Y9392005D03*
G01*
X299999Y9138005D03*
G01*
X299999Y8884005D03*
G01*
X299999Y8630005D03*
G01*
X299999Y8376005D03*
G01*
X299999Y8122005D03*
G01*
X299999Y7868005D03*
G01*
X299999Y7614005D03*
G01*
X299999Y7360005D03*
G01*
X299999Y7106005D03*
G01*
X299999Y6852005D03*
G01*
X299999Y6598005D03*
G01*
X299999Y6344005D03*
G01*
X299999Y6090005D03*
G01*
X299999Y5836005D03*
G01*
X299999Y5582005D03*
G01*
X299999Y5328005D03*
G01*
X299999Y5074005D03*
G01*
X299999Y4820005D03*
G01*
X299999Y4566005D03*
G01*
X299999Y4312005D03*
G01*
X299999Y4058005D03*
G01*
X1823999Y4058005D03*
G01*
X1823999Y4312005D03*
G01*
X1823999Y4566005D03*
G01*
X1823999Y4820005D03*
G01*
X1823999Y5074005D03*
G01*
X1823999Y5328005D03*
G01*
X1823999Y5582005D03*
G01*
X1823999Y5836005D03*
G01*
X1823999Y6090005D03*
G01*
X1823999Y6344005D03*
G01*
X1823999Y6598005D03*
G01*
X1823999Y6852005D03*
G01*
X1823999Y7106005D03*
G01*
X1823999Y7360005D03*
G01*
X1823999Y7614005D03*
G01*
X1823999Y7868005D03*
G01*
X1823999Y8122005D03*
G01*
X1823999Y8376005D03*
G01*
X1823999Y8630005D03*
G01*
X1823999Y8884005D03*
G01*
X1823999Y9138005D03*
G01*
X1823999Y9392005D03*
G01*
X1823999Y9646005D03*
G01*
X1823999Y9900005D03*
D29*
G01*
X1250010Y1149985D03*
G01*
X1499996Y1149985D03*
G01*
X1750009Y1149985D03*
D34*
G01*
X1999995Y1849983D03*
G01*
X999997Y1849983D03*
D29*
G01*
X2750007Y1149985D03*
G01*
X2999993Y1149985D03*
G01*
X3250006Y1149985D03*
D34*
G01*
X3499993Y1849983D03*
G01*
X2499995Y1849983D03*
D29*
G01*
X4250004Y1149985D03*
G01*
X4499990Y1149985D03*
G01*
X4750003Y1149985D03*
D34*
G01*
X4999990Y1849983D03*
G01*
X3999991Y1849983D03*
D29*
G01*
X5750026Y1149985D03*
G01*
X6000013Y1149985D03*
G01*
X6250025Y1149985D03*
D34*
G01*
X6500012Y1849983D03*
G01*
X5500014Y1849983D03*
D29*
G01*
X7250023Y1149985D03*
G01*
X7500010Y1149985D03*
G01*
X7750022Y1149985D03*
D34*
G01*
X8000009Y1849983D03*
G01*
X7000011Y1849983D03*
D29*
G01*
X8750020Y1149985D03*
G01*
X9000007Y1149985D03*
G01*
X9250019Y1149985D03*
D34*
G01*
X9500006Y1849983D03*
G01*
X8500008Y1849983D03*
D29*
G01*
X10250017Y1149985D03*
G01*
X10500004Y1149985D03*
G01*
X10750016Y1149985D03*
D34*
G01*
X11000003Y1849983D03*
G01*
X10000005Y1849983D03*
D29*
G01*
X11750014Y1149985D03*
G01*
X12000001Y1149985D03*
G01*
X12250013Y1149985D03*
D34*
G01*
X12500000Y1849983D03*
G01*
X11500002Y1849983D03*
D35*
G01*
X13049986Y-3090011D03*
G01*
X13499998Y8000009D03*
G01*
X11267389Y-329996D03*
G01*
X12419990Y-150012D03*
G01*
X14040002Y8279993D03*
G01*
X12449987Y-2366975D03*
G01*
X12140006Y-2320010D03*
G01*
X13289991Y-2459989D03*
G01*
X13080009Y-2433015D03*
G01*
X12600000Y-2250008D03*
G01*
X12389993Y-1980006D03*
G01*
X12628448Y-2496515D03*
G01*
X2250008Y-2699994D03*
G01*
X3750005Y-2699994D03*
G01*
X7490002Y-3860012D03*
G01*
X8849995Y-2099995D03*
G01*
X9029954Y-4050029D03*
G01*
X3199993Y-3820007D03*
G01*
X12750012Y-1550009D03*
G01*
X10349991Y-2040001D03*
G01*
X12840004Y-1859991D03*
G01*
X10500004Y-2220010D03*
G01*
X10500004Y-2550007D03*
G01*
X9900005Y-3420008D03*
G01*
X13941196Y-2198801D03*
G01*
X12059996Y-1650009D03*
G01*
X13499998Y-3329990D03*
G01*
X12659995Y-3180003D03*
G01*
X13680008Y-1320012D03*
G01*
X13680008Y-1710004D03*
G01*
X13109956Y-3329939D03*
D36*
G01*
X12799999Y-3899992D03*
D37*
G01*
X12016486Y-2871978D03*
G01*
X12322556Y-2557779D03*
D36*
G01*
X11849988Y-1799996D03*
G01*
X1450009Y-4050004D03*
G01*
X13199999Y-2650007D03*
D37*
G01*
X13732256Y6416039D03*
G01*
X12618465Y5977381D03*
G01*
X13374116Y963929D03*
G01*
X1646681Y6343904D03*
D36*
G01*
X13750010Y1599996D03*
G01*
X14099997Y1499996D03*
G01*
X14350009Y1699996D03*
G01*
X8430006Y-419988D03*
D37*
G01*
X9039097Y7359904D03*
G01*
X1133347Y7627620D03*
G01*
X9422891Y7631684D03*
G01*
X13729208Y9788397D03*
G01*
X13220700Y156971D03*
G01*
X12350013Y3050006D03*
G01*
X6903720Y-1372615D03*
G01*
X8914891Y7105904D03*
G01*
X2608579Y6398260D03*
G01*
X164845Y-1262379D03*
G01*
X4802886Y-2787142D03*
G01*
X1644904Y-1608073D03*
G01*
X1607820Y-1535684D03*
G01*
X13038327Y5679439D03*
G01*
X13960347Y-997965D03*
G01*
X8102854Y7838439D03*
D36*
G01*
X3659987Y-1170000D03*
G01*
X3750005Y-599998D03*
G01*
X12059996Y-89992D03*
G01*
X13019989Y0D03*
G01*
X9870008Y-240004D03*
G01*
X13552474Y532460D03*
G01*
X14028674Y599947D03*
G01*
X8349995Y9900005D03*
G01*
X14399996Y9149994D03*
G01*
X1199997Y8500008D03*
G01*
X4099991Y5250002D03*
G01*
X11879986Y3359988D03*
G01*
X12100001Y3950004D03*
G01*
X4499990Y3850004D03*
G01*
X14150009Y1399997D03*
G01*
X13050011Y-2628595D03*
G01*
X-50037Y7300010D03*
G01*
X5339994Y1469999D03*
G01*
X6060008Y1410004D03*
G01*
X6839991Y1469999D03*
G01*
X8639987Y1559991D03*
G01*
X9930002Y1499996D03*
G01*
X11640007Y1529994D03*
G01*
X12029998Y1380007D03*
G01*
X12179985Y1469999D03*
G01*
X13229996Y990092D03*
G01*
X13529995Y659993D03*
G01*
X12610007Y-2059990D03*
G01*
X1893138Y3356863D03*
G01*
X614781Y0D03*
G01*
X3510000Y-150012D03*
G01*
X11089995Y-119989D03*
G01*
X11650014Y640003D03*
G01*
X6779996Y-1129995D03*
G01*
X8140014Y9300006D03*
G01*
X459994Y-2159990D03*
G01*
X12729997Y349986D03*
G01*
X5300014Y-1129995D03*
G01*
X9960000Y759993D03*
G01*
X13990015Y-3060014D03*
G01*
X1740001Y-380009D03*
M02*
